<svg width="738" height="523" viewBox="0 0 738 523" fill="none" xmlns="http://www.w3.org/2000/svg">
<path d="M557.402 27.2317C575.22 27.2317 592.33 29.5503 609.697 34.3243C645.044 44.0333 673.52 62.8636 694.327 90.3081C711.178 112.528 723.124 140.479 729.835 173.39C740.693 226.613 734.628 277.573 732.509 291.927C732.461 292.233 732.42 292.515 732.412 292.772H732.396C720.974 369.019 692.82 426.686 648.717 464.185C608.376 498.481 554.905 515.87 489.785 515.87C408.016 515.87 308.742 488.023 202.685 435.332C137.211 402.808 80.9124 355.929 44.1639 303.351C26.861 278.595 14.6008 253.735 7.71347 229.446C0.77782 204.981 -0.341872 182.367 4.39467 162.216C16.9046 108.961 68.7327 79.6411 150.341 79.6411C158.654 79.6411 167.386 79.947 176.288 80.5508C193.993 81.7503 211.578 82.3622 228.551 82.3622C322.983 82.3622 387.821 64.2966 445.014 48.3565C485.709 37.0213 520.847 27.2317 557.402 27.2317ZM557.402 26C470.404 26 391.663 81.1304 228.559 81.1304C212.053 81.1304 194.71 80.5669 176.376 79.3271C167.33 78.7152 158.646 78.4174 150.349 78.4174C-88.6445 78.4174 -20.2869 325.925 202.145 436.427C303.232 486.647 403.634 517.094 489.793 517.094C614.643 517.094 709.616 453.196 733.613 292.949C733.387 292.869 771.513 77.4835 610.027 33.1409C591.71 28.1093 574.391 26 557.402 26Z" fill="#EEDD2F"/>
<path opacity="0.5" d="M666.192 166.424C620.486 99.2779 540.413 88.5211 491.905 95.5055C443.397 102.483 389.595 99.2911 348.102 44.9993C306.602 -9.29246 231.77 -14.384 190.744 29.3291C146.363 76.6102 85.9626 191.512 166.537 325.118C217.873 410.249 296.298 466.091 364.346 495.116C432.388 524.142 489.195 534.885 523.081 505.926C556.973 476.966 537.249 443.911 530.313 429.065C523.378 414.219 512.724 370.427 590.609 354.75C683.359 336.079 717.317 241.53 666.192 166.424Z" fill="#EEDD2F"/>
</svg>
