<svg width="31" height="31" viewBox="0 0 31 31" fill="none" xmlns="http://www.w3.org/2000/svg">
<path d="M7.5051 2.09278C7.5051 1.64564 7.49861 1.24433 7.50696 0.84395C7.51716 0.30045 7.78528 -0.00731533 8.2241 0.00110378C8.65457 0.00952289 8.89022 0.292966 8.89857 0.827112C8.90506 1.22936 8.8995 1.63067 8.8995 2.06191C13.0957 2.06191 17.2464 2.06191 21.4732 2.06191C21.4732 1.65406 21.4676 1.24058 21.4741 0.827112C21.4825 0.292966 21.7181 0.00858743 22.1477 0.000168323C22.5865 -0.00825079 22.8546 0.299514 22.8657 0.843015C22.8741 1.24339 22.8676 1.6447 22.8676 2.09185C23.3612 2.09185 23.8055 2.09185 24.2499 2.09185C25.2705 2.09185 26.29 2.0853 27.3106 2.09372C28.935 2.10588 30.1161 3.26023 30.1903 4.89635C30.194 4.97399 30.1931 5.05257 30.1931 5.13021C30.1931 12.7205 30.1949 20.3108 30.1921 27.9011C30.1912 29.3913 29.4036 30.4998 28.0908 30.8347C27.7661 30.9179 27.4182 30.9329 27.0805 30.9338C19.1511 30.9395 11.2207 30.9395 3.29129 30.9367C1.31241 30.9357 0.179639 29.7935 0.178711 27.8075C0.178711 20.2809 0.178711 12.7523 0.179639 5.22469C0.179639 3.24246 1.32447 2.09466 3.29407 2.09372C4.53076 2.09278 5.76744 2.09372 7.00412 2.09372C7.15441 2.09278 7.30471 2.09278 7.5051 2.09278ZM28.7987 9.15922C19.6901 9.15922 10.6576 9.15922 1.57496 9.15922C1.57496 9.36035 1.57496 9.52779 1.57496 9.69617C1.57496 15.7271 1.57496 21.7589 1.57496 27.7898C1.57496 29.0096 2.0843 29.526 3.28943 29.526C11.2179 29.5269 19.1474 29.5269 27.0758 29.526C28.2884 29.526 28.7977 29.0152 28.7977 27.7982C28.7987 21.7673 28.7977 15.7355 28.7977 9.70459C28.7987 9.53621 28.7987 9.36783 28.7987 9.15922ZM21.4741 3.52777C17.2473 3.52777 13.0957 3.52777 8.90043 3.52777C8.90043 3.94499 8.90321 4.33227 8.8995 4.71861C8.89393 5.27801 8.65457 5.59607 8.23338 5.61291C7.80012 5.62975 7.51438 5.28363 7.50603 4.72048C7.50046 4.32291 7.5051 3.92441 7.5051 3.50345C5.91866 3.50345 4.40551 3.48661 2.89329 3.51187C2.29118 3.52216 1.70021 3.96183 1.66124 4.52965C1.58888 5.57549 1.64083 6.63068 1.64083 7.68214C10.6835 7.68214 19.7198 7.68214 28.7987 7.68214C28.7987 6.77849 28.8079 5.90758 28.7959 5.0376C28.782 4.07595 28.2058 3.50439 27.2493 3.49878C25.9505 3.49129 24.6517 3.49597 23.3528 3.49784C23.2034 3.49784 23.0541 3.51094 22.8685 3.51936C22.8685 3.97773 22.8787 4.39588 22.8657 4.81403C22.85 5.30421 22.5447 5.62881 22.1403 5.61384C21.7441 5.59888 21.4862 5.29579 21.476 4.81309C21.4667 4.39494 21.4741 3.97679 21.4741 3.52777Z" fill="black"/>
<path d="M15.1423 27.2428C14.4346 27.2428 13.7268 27.2481 13.019 27.241C12.4333 27.2348 12.1909 26.9899 12.1882 26.3985C12.1838 24.9548 12.1829 23.5102 12.1882 22.0665C12.19 21.5016 12.436 21.2497 12.9951 21.247C14.4549 21.2399 15.9147 21.2399 17.3745 21.247C17.9336 21.2497 18.1805 21.5016 18.1831 22.0657C18.1893 23.5093 18.1884 24.9539 18.184 26.3976C18.1823 26.9882 17.939 27.2348 17.3533 27.241C16.6163 27.2481 15.8793 27.2428 15.1423 27.2428ZM13.5419 25.8875C14.6469 25.8875 15.7263 25.8875 16.8313 25.8875C16.8313 24.7833 16.8313 23.7047 16.8313 22.6005C15.7263 22.6005 14.6469 22.6005 13.5419 22.6005C13.5419 23.7038 13.5419 24.7833 13.5419 25.8875Z" fill="black"/>
<path d="M6.87958 12.4698C7.61737 12.4698 8.35517 12.4641 9.09296 12.4717C9.61021 12.4765 9.86264 12.7264 9.86707 13.2854C9.87947 14.8908 9.87858 16.4952 9.86707 18.1005C9.86264 18.6595 9.61641 18.9189 9.09296 18.9237C7.60231 18.9352 6.11256 18.9361 4.62191 18.9228C4.10909 18.918 3.8788 18.6404 3.87703 18.0786C3.87172 16.4894 3.87172 14.9003 3.87703 13.3111C3.8788 12.7283 4.11883 12.4775 4.6662 12.4727C5.40399 12.466 6.14178 12.4698 6.87958 12.4698ZM5.22331 17.4567C6.32158 17.4567 7.40303 17.4567 8.50839 17.4567C8.50839 16.2615 8.50839 15.0968 8.50839 13.934C7.39595 13.934 6.31361 13.934 5.22331 13.934C5.22331 15.1206 5.22331 16.2748 5.22331 17.4567Z" fill="black"/>
<path d="M15.1857 12.4696C15.9224 12.4696 16.6591 12.4649 17.3958 12.4715C17.9344 12.4763 18.1794 12.7339 18.182 13.3188C18.1891 14.9083 18.19 16.4988 18.1811 18.0884C18.1785 18.6399 17.93 18.9185 17.4188 18.9232C15.9304 18.9356 14.442 18.9356 12.9535 18.9232C12.4424 18.9194 12.193 18.6399 12.1903 18.0903C12.1824 16.5007 12.1832 14.9102 12.1894 13.3207C12.1921 12.7339 12.4362 12.4763 12.9739 12.4706C13.7123 12.4649 14.449 12.4696 15.1857 12.4696ZM13.5417 17.451C14.641 17.451 15.7349 17.451 16.8333 17.451C16.8333 16.2594 16.8333 15.1049 16.8333 13.9266C15.7279 13.9266 14.6471 13.9266 13.5417 13.9266C13.5417 15.0906 13.5417 16.2298 13.5417 17.451Z" fill="black"/>
<path d="M26.4976 15.6872C26.4976 16.4819 26.502 17.2766 26.4958 18.0714C26.4914 18.6533 26.2566 18.9205 25.7118 18.9243C24.2359 18.9348 22.76 18.9357 21.2841 18.9243C20.741 18.9195 20.5063 18.6562 20.5027 18.0599C20.4939 16.4867 20.4939 14.9125 20.5027 13.3392C20.5063 12.721 20.7464 12.4729 21.3169 12.471C22.7777 12.4672 24.2394 12.4662 25.7003 12.471C26.2637 12.4729 26.4931 12.7296 26.4967 13.3507C26.5011 14.1301 26.4976 14.9086 26.4976 15.6872ZM21.8732 13.9212C21.8732 15.1281 21.8732 16.2901 21.8732 17.4617C22.9832 17.4617 24.0534 17.4617 25.1413 17.4617C25.1413 16.2701 25.1413 15.1061 25.1413 13.9212C24.0454 13.9212 22.9735 13.9212 21.8732 13.9212Z" fill="black"/>
<path d="M3.87458 24.2108C3.87458 23.4886 3.87015 22.7673 3.87635 22.045C3.88078 21.5031 4.11729 21.2512 4.6532 21.2477C6.12896 21.2397 7.6056 21.2397 9.08135 21.2477C9.61284 21.2503 9.86529 21.5031 9.86884 22.0441C9.8777 23.5169 9.87947 24.9905 9.86795 26.4632C9.86352 26.9954 9.60398 27.2367 9.06098 27.2394C7.5994 27.2465 6.1387 27.2465 4.67712 27.2394C4.11463 27.2367 3.87989 26.9892 3.87635 26.4199C3.87104 25.6844 3.87458 24.9481 3.87458 24.2108ZM8.50647 25.8992C8.50647 24.7775 8.50647 23.6963 8.50647 22.609C7.39301 22.609 6.31055 22.609 5.23961 22.609C5.23961 23.7246 5.23961 24.8057 5.23961 25.8992C6.33447 25.8992 7.39478 25.8992 8.50647 25.8992Z" fill="black"/>
<path d="M26.4972 24.2877C26.4972 25.0098 26.5025 25.731 26.4954 26.4531C26.4901 26.9887 26.2482 27.2362 25.706 27.2388C24.2301 27.2468 22.7532 27.2468 21.2773 27.2379C20.767 27.2353 20.5083 26.9834 20.5047 26.4734C20.4932 24.9859 20.4932 23.4984 20.5047 22.0109C20.5083 21.5 20.767 21.2516 21.279 21.2481C22.755 21.2393 24.2318 21.2402 25.7078 21.2472C26.2509 21.2499 26.4919 21.4965 26.4963 22.0338C26.5016 22.7851 26.4972 23.5364 26.4972 24.2877ZM25.1408 22.6083C24.0352 22.6083 22.9543 22.6083 21.8691 22.6083C21.8691 23.7229 21.8691 24.8038 21.8691 25.8865C22.9783 25.8865 24.0502 25.8865 25.1408 25.8865C25.1408 24.7808 25.1408 23.6999 25.1408 22.6083Z" fill="black"/>
</svg>
