<svg width="143" height="90" viewBox="0 0 143 90" fill="none" xmlns="http://www.w3.org/2000/svg">
<path d="M0 23.171C0.900487 21.6468 2.22045 21.3308 3.92075 21.5462C19.0053 23.4786 34.1206 23.3919 49.2499 22.1698C61.275 21.1994 73.289 20.0584 85.3309 19.3593C96.7436 18.6965 108.151 19.2698 119.505 20.6792C121.896 20.9757 122.584 21.6972 122.584 24.0938C122.586 43.9996 122.586 63.9026 122.584 83.8084C122.584 86.4567 121.616 87.3488 118.945 87.0076C101.042 84.7228 83.1496 85.3605 65.2545 87.1167C52.2702 88.3891 39.2774 89.7454 26.2148 89.4071C18.4963 89.2085 10.7919 88.4143 3.07899 87.9249C1.7003 87.8382 0.707525 87.2565 0 86.1155C0 65.1331 0 44.1534 0 23.171ZM5.14005 82.9359C5.55393 83.0058 5.90909 83.0841 6.26985 83.1232C17.0785 84.3369 27.9291 84.7816 38.7741 84.0713C51.9262 83.2099 65.0532 81.9571 78.1997 80.9895C90.6304 80.075 103.055 80.1869 115.458 81.5348C116.082 81.6019 116.714 81.5991 117.393 81.6327C117.393 62.8847 117.393 44.3044 117.393 25.6878C117.019 25.6095 116.708 25.5173 116.389 25.4809C106.277 24.3455 96.1228 23.8365 85.9713 24.4378C74.1168 25.1397 62.2874 26.2444 50.4496 27.198C37.4765 28.2439 24.4977 28.6298 11.5106 27.472C9.40198 27.2847 7.29059 27.1197 5.13725 26.9435C5.14005 45.7111 5.14005 64.2913 5.14005 82.9359Z" fill="#EEDD2F"/>
<path d="M137.919 6.21028C132.122 5.8635 126.501 5.43004 120.871 5.21471C107.66 4.70574 94.5221 5.81596 81.3923 7.09398C66.1204 8.58174 50.8317 9.64163 35.4815 8.58174C31.3454 8.2965 27.2233 7.83227 23.0984 7.4016C21.3198 7.21423 20.2907 6.05367 20.4473 4.59108C20.6151 3.01942 21.8595 2.12732 23.7025 2.35105C34.7348 3.69339 45.8119 4.31142 56.903 3.71017C66.7161 3.17882 76.518 2.36223 86.3031 1.46454C104.26 -0.18262 122.199 -0.800656 140.142 1.54005C142.413 1.83648 142.997 2.54401 142.997 4.84277C143 24.7989 143 44.755 142.997 64.7084C142.997 66.7862 142.144 67.9076 140.556 67.9467C138.909 67.9887 137.916 66.7918 137.916 64.7195C137.913 45.882 137.913 27.0473 137.913 8.2098C137.919 7.65049 137.919 7.09958 137.919 6.21028Z" fill="#EEDD2F"/>
<path d="M127.693 16.5435C117.634 15.3326 107.762 14.888 97.89 15.369C88.1217 15.8472 78.3618 16.5966 68.6214 17.4748C53.892 18.8059 39.1626 19.6812 24.3801 18.6409C20.5237 18.3697 16.6812 17.9306 12.836 17.5111C11.0462 17.3154 10.1317 16.2191 10.2827 14.6502C10.4281 13.1233 11.6027 12.2508 13.4121 12.4634C21.9807 13.4785 30.58 14.2867 39.2018 13.9567C49.8119 13.554 60.4052 12.7458 71.0041 12.1026C82.1595 11.4258 93.3093 10.3324 104.473 10.187C113.061 10.0751 121.663 11.1266 130.257 11.7167C132.072 11.8397 132.847 12.8716 132.852 14.874C132.864 20.7495 132.858 26.6223 132.858 32.4978C132.858 46.4386 132.861 60.3765 132.852 74.3173C132.852 74.9213 132.858 75.5422 132.724 76.1211C132.439 77.3515 131.379 78.1178 130.168 78.073C128.965 78.0283 127.989 77.1781 127.788 75.9169C127.693 75.324 127.696 74.7088 127.696 74.1048C127.69 55.5497 127.693 36.9946 127.693 18.4396C127.693 17.8383 127.693 17.2398 127.693 16.5435Z" fill="#EEDD2F"/>
<path d="M56.1302 39.2656C56.449 35.5294 56.9776 34.5422 58.6723 34.4975C60.4593 34.4528 61.0521 35.4651 61.3709 39.2069C61.8799 39.4138 62.4364 39.618 62.9762 39.8641C65.6944 41.1057 67.1011 43.2563 67.2828 46.2094C67.3723 47.6776 66.4187 48.827 65.0847 48.9808C63.6333 49.1486 62.5623 48.3684 62.2351 46.9114C61.6562 44.3357 59.1617 43.273 56.821 44.607C55.3052 45.4683 55.2549 47.4315 56.821 48.3152C59.1701 49.6436 61.6506 50.7454 63.9661 52.1241C66.9389 53.8943 68.0267 56.8754 67.0927 60.1977C66.4075 62.6335 64.738 64.1884 62.4085 64.9938C61.5639 65.2874 61.2479 65.6342 61.2619 66.5459C61.301 68.9789 60.4509 70.1534 58.7925 70.1786C57.0866 70.2038 56.1498 68.9453 56.2309 66.5011C56.2617 65.5307 55.8981 65.1616 55.0396 64.798C52.3213 63.6459 50.7637 61.568 50.6043 58.5701C50.5148 56.9118 51.4796 55.7512 52.9338 55.6394C54.3376 55.5303 55.4618 56.4476 55.6464 58.0416C55.8002 59.3476 56.4434 60.1446 57.6935 60.3292C59.1729 60.5473 60.7277 60.7263 61.8436 59.3923C62.6322 58.4527 62.4168 57.1271 61.3374 56.4923C59.8133 55.5974 58.2108 54.8396 56.6448 54.0146C55.8198 53.5811 54.992 53.156 54.1838 52.6946C51.5802 51.2012 50.3721 48.9388 50.6043 45.9521C50.8308 43.0353 52.3549 41.0134 55.006 39.8193C55.3444 39.6655 55.68 39.5089 56.0184 39.3523C56.0631 39.3327 56.0939 39.2936 56.1302 39.2656Z" fill="#EEDD2F"/>
<path d="M101.428 34.4528C99.1936 34.4528 96.9592 34.4779 94.7248 34.4444C92.7672 34.4164 91.7017 33.4991 91.6905 31.9191C91.6793 30.3027 92.8287 29.2848 94.8143 29.3491C99.7026 29.5057 104.588 29.7042 109.471 29.9363C111.412 30.0286 112.528 31.1976 112.371 32.786C112.217 34.3437 110.914 35.1687 108.962 35.0261C106.453 34.8415 103.942 34.7128 101.431 34.559C101.431 34.5255 101.431 34.4891 101.428 34.4528Z" fill="#EEDD2F"/>
<path d="M21.8127 79.2052C18.1213 78.9675 15.4729 78.8165 12.8302 78.6179C11.1803 78.4921 10.1931 77.407 10.2742 75.9109C10.3553 74.4287 11.4599 73.4947 13.1546 73.5534C18.1744 73.7296 23.1914 73.9253 28.2112 74.1267C29.8248 74.191 30.9546 75.2873 30.9406 76.7135C30.9266 78.1789 29.8304 79.1828 28.1665 79.1968C25.6971 79.222 23.2333 79.2052 21.8127 79.2052Z" fill="#EEDD2F"/>
</svg>
