<svg width="90" height="96" viewBox="0 0 90 96" fill="none" xmlns="http://www.w3.org/2000/svg">
<path d="M87.5859 49.5194C87.5609 59.6114 84.1577 68.4647 77.8117 76.2571C76.1026 78.3565 76.1652 77.4682 77.5389 79.868C79.4532 83.2111 81.3175 86.5718 82.2684 90.3428C82.4661 91.1211 82.5712 91.9468 82.5637 92.7501C82.5462 95.0122 81.0147 96.4035 78.8102 95.863C76.9884 95.4176 75.1417 94.7295 73.5502 93.751C70.5449 91.9043 67.6997 89.7948 64.827 87.7429C64.1939 87.29 63.7259 87.2049 62.9852 87.5252C51.3818 92.5449 39.7634 92.67 28.165 87.5027C27.4493 87.1849 26.9763 87.2174 26.3182 87.6778C23.1202 89.9174 19.9097 92.147 16.6141 94.244C15.4505 94.9847 14.0792 95.4877 12.7329 95.828C10.0879 96.4986 8.36631 95.0122 8.48893 92.2822C8.58902 90.0901 9.3072 88.0432 10.2756 86.1063C11.4792 83.7066 12.7479 81.3318 14.1142 79.0222C14.6047 78.1889 14.5697 77.6709 13.9691 76.9803C11.199 73.8048 8.81674 70.3515 7.20522 66.4478C0.508914 50.2576 2.65343 35.2334 13.8039 21.7708C21.1534 12.8974 30.9451 8.16045 42.4084 7.32216C62.5874 5.84577 79.0529 18.28 85.0685 34.813C87.0029 40.1306 87.5934 43.7415 87.5859 49.5194ZM80.3391 49.4668C81.0898 30.9194 64.8495 14.3963 45.5363 14.3463C28.2626 14.3037 10.6385 28.7273 10.6535 49.2516C10.6685 68.5073 26.3983 84.3147 45.699 84.1695C66.5386 84.0144 80.9271 66.4603 80.3391 49.4668Z" fill="#EEDD2F"/>
<path d="M84.1905 24.1854C81.8282 20.3218 78.9931 17.0512 75.7951 14.0884C72.592 11.1231 69.1087 8.5632 65.0449 6.71396C65.2051 6.42619 65.2827 6.18596 65.4403 6.02081C66.8792 4.50438 68.2605 2.92039 69.8019 1.51406C71.9289 -0.427767 75.0644 -0.520354 77.2689 1.3439C80.9374 4.44933 84.5508 7.62482 88.0991 10.8679C90.3162 12.8948 90.589 16.0477 88.9424 18.5551C88.4645 19.2833 87.9115 19.9664 87.3434 20.6296C86.35 21.7907 85.319 22.9167 84.1905 24.1854Z" fill="#EEDD2F"/>
<path d="M5.72892 24.2859C3.98978 22.0713 2.19309 20.072 0.731709 17.8474C-0.584531 15.8455 -0.0490265 12.7476 1.73015 11.1135C5.36357 7.77789 9.03703 4.48228 12.7781 1.26675C14.875 -0.534943 18.2782 -0.36228 20.2701 1.53451C21.9142 3.09848 23.4606 4.76505 25.2223 6.56674C16.9094 10.5605 10.7862 16.6487 5.72892 24.2859Z" fill="#EEDD2F"/>
<path d="M47.2398 34.1252C47.2398 37.5009 47.2398 40.879 47.2398 44.2547C47.2398 45.4684 47.5501 45.8737 48.7712 45.9939C49.9523 46.1115 51.1435 46.144 52.3296 46.1665C56.9564 46.2566 61.5808 46.3317 66.2076 46.4067C67.4613 46.4268 68.3597 46.9873 68.8526 48.1459C69.6509 50.0201 68.4848 51.977 66.4504 52.032C62.294 52.1421 58.135 52.1672 53.9786 52.2272C52.8225 52.2447 51.6639 52.2497 50.5079 52.2723C49.4744 52.2948 48.511 52.4624 47.5551 52.9879C45.4706 54.134 43.1009 53.3883 41.8797 51.3464C40.7462 49.4496 41.2792 47.0298 43.201 45.7336C43.8241 45.3132 44.0418 44.8753 44.0418 44.1371C44.0268 37.696 44.0518 31.255 44.0668 24.8164C44.0668 24.411 44.0793 24.0031 44.1043 23.5978C44.1719 22.4617 44.5823 22.0063 45.5182 22.0163C46.464 22.0263 47.2373 22.7745 47.2373 23.7104C47.2423 27.1861 47.2398 30.6569 47.2398 34.1252Z" fill="#EEDD2F"/>
</svg>
