<svg width="335" height="80" viewBox="0 0 335 80" fill="none" xmlns="http://www.w3.org/2000/svg">
<path d="M167.499 0L171.287 6.67972L169.824 10.8966C169.698 11.2624 169.761 11.6635 169.998 11.9753C170.232 12.287 170.612 12.472 171.014 12.472H171.181C171.802 12.472 172.327 12.0376 172.421 11.4515L173.12 6.99563L180 0L174.362 19L160.638 19L155 0L161.88 6.99563L162.579 11.4515C162.67 12.0376 163.198 12.472 163.819 12.472H163.986C164.388 12.472 164.766 12.287 165.002 11.9753C165.239 11.6635 165.302 11.2603 165.176 10.8966L163.713 6.67972L167.499 0Z" fill="#C69B3C"/>
<path d="M97.1145 37.2L91.6185 54H87.4425L83.7465 42.624L79.9305 54H75.7785L70.2585 37.2H74.2905L78.0825 49.008L82.0425 37.2H85.6425L89.4825 49.104L93.3945 37.2H97.1145ZM109.786 50.4H101.986L100.498 54H96.5145L104.002 37.2H107.842L115.354 54H111.274L109.786 50.4ZM108.562 47.448L105.898 41.016L103.234 47.448H108.562ZM117.097 37.2H120.985V50.832H129.409V54H117.097V37.2ZM131.582 37.2H135.47V50.832H143.894V54H131.582V37.2ZM160.999 54.288C159.255 54.288 157.679 53.912 156.271 53.16C154.879 52.408 153.783 51.376 152.983 50.064C152.199 48.736 151.807 47.248 151.807 45.6C151.807 43.952 152.199 42.472 152.983 41.16C153.783 39.832 154.879 38.792 156.271 38.04C157.679 37.288 159.255 36.912 160.999 36.912C162.743 36.912 164.311 37.288 165.703 38.04C167.095 38.792 168.191 39.832 168.991 41.16C169.791 42.472 170.191 43.952 170.191 45.6C170.191 47.248 169.791 48.736 168.991 50.064C168.191 51.376 167.095 52.408 165.703 53.16C164.311 53.912 162.743 54.288 160.999 54.288ZM160.999 50.976C161.991 50.976 162.887 50.752 163.687 50.304C164.487 49.84 165.111 49.2 165.559 48.384C166.023 47.568 166.255 46.64 166.255 45.6C166.255 44.56 166.023 43.632 165.559 42.816C165.111 42 164.487 41.368 163.687 40.92C162.887 40.456 161.991 40.224 160.999 40.224C160.007 40.224 159.111 40.456 158.311 40.92C157.511 41.368 156.879 42 156.415 42.816C155.967 43.632 155.743 44.56 155.743 45.6C155.743 46.64 155.967 47.568 156.415 48.384C156.879 49.2 157.511 49.84 158.311 50.304C159.111 50.752 160.007 50.976 160.999 50.976ZM177.001 40.32V44.76H184.777V47.88H177.001V54H173.113V37.2H185.809V40.32H177.001ZM199.126 40.32V44.76H206.902V47.88H199.126V54H195.238V37.2H207.934V40.32H199.126ZM220.927 50.4H213.127L211.639 54H207.655L215.143 37.2H218.983L226.495 54H222.415L220.927 50.4ZM219.703 47.448L217.039 41.016L214.375 47.448H219.703ZM243.526 54L243.502 43.92L238.558 52.224H236.806L231.886 44.136V54H228.238V37.2H231.454L237.742 47.64L243.934 37.2H247.126L247.174 54H243.526ZM264.168 50.88V54H251.16V37.2H263.856V40.32H255.024V43.968H262.824V46.992H255.024V50.88H264.168Z" fill="black"/>
<g clip-path="url(#clip0)">
<path d="M41.4598 63.72C42.9798 66.58 41.7898 68.88 41.7898 68.88C41.7898 68.88 39.2198 68.58 37.6998 65.72C36.1798 62.85 36.2898 58.5 36.2898 58.5C36.2898 58.5 39.9498 60.85 41.4598 63.72Z" fill="#C0C1C3"/>
<path d="M37.07 71.01C40.31 71.02 41.78 68.89 41.78 68.89C41.78 68.89 40.32 66.75 37.08 66.75C33.84 66.74 30.04 68.87 30.04 68.87C30.04 68.87 33.83 71 37.07 71.01Z" fill="#C0C1C3"/>
<path d="M35.0603 60.22C35.8703 62.98 34.4103 64.76 34.4103 64.76C34.4103 64.76 32.2303 64.04 31.4203 61.28C30.6103 58.52 31.4903 54.75 31.4903 54.75C31.4903 54.75 34.2603 57.46 35.0603 60.22Z" fill="#C0C1C3"/>
<path d="M29.9302 65.7599C32.7402 66.3499 34.4102 64.7699 34.4102 64.7699C34.4102 64.7699 33.5202 62.6499 30.7002 62.0599C27.8802 61.4699 24.2002 62.6299 24.2002 62.6299C24.2002 62.6299 27.1102 65.1699 29.9302 65.7599Z" fill="#C0C1C3"/>
<path d="M30.5701 55.2999C30.6601 57.8099 29.0501 59.0099 29.0501 59.0099C29.0501 59.0099 27.3501 57.9399 27.2601 55.4199C27.1701 52.8999 28.7101 49.9099 28.7101 49.9099C28.7101 49.9099 30.4801 52.7899 30.5701 55.2999Z" fill="#C0C1C3"/>
<path d="M25.0501 58.8998C27.3101 59.9998 29.0601 59.0098 29.0601 59.0098C29.0601 59.0098 28.7601 57.0198 26.5001 55.9198C24.2401 54.8198 20.8701 55.0198 20.8701 55.0198C20.8701 55.0198 22.7901 57.7998 25.0501 58.8998Z" fill="#C0C1C3"/>
<path d="M28.34 49.1401C27.53 51.3601 25.72 51.8301 25.72 51.8301C25.72 51.8301 24.62 50.3001 25.43 48.0801C26.23 45.8601 28.63 43.8101 28.63 43.8101C28.63 43.8101 29.14 46.9201 28.34 49.1401Z" fill="#C0C1C3"/>
<path d="M22.27 50.32C23.85 52.07 25.72 51.82 25.72 51.82C25.72 51.82 26.15 50 24.58 48.25C23 46.5 20 45.48 20 45.48C20 45.48 20.69 48.57 22.27 50.32Z" fill="#C0C1C3"/>
<path d="M27.9001 42.6498C26.6001 44.6198 24.7301 44.6598 24.7301 44.6598C24.7301 44.6598 24.0201 42.9198 25.3101 40.9498C26.6001 38.9798 29.4101 37.5298 29.4101 37.5298C29.4101 37.5298 29.1901 40.6798 27.9001 42.6498Z" fill="#C0C1C3"/>
<path d="M21.7201 42.3899C22.8501 44.4599 24.7201 44.6499 24.7201 44.6499C24.7201 44.6499 25.5701 42.9699 24.4401 40.8999C23.3101 38.8299 20.6301 37.1499 20.6301 37.1499C20.6301 37.1499 20.5901 40.3199 21.7201 42.3899Z" fill="#C0C1C3"/>
<path d="M29.22 36.6801C27.52 38.0601 25.85 37.5601 25.85 37.5601C25.85 37.5601 25.71 35.8201 27.41 34.4401C29.11 33.0601 32 32.5701 32 32.5701C32 32.5701 30.92 35.3001 29.22 36.6801Z" fill="#C0C1C3"/>
<path d="M23.8299 34.71C24.2399 36.86 25.8399 37.56 25.8399 37.56C25.8399 37.56 27.0599 36.32 26.6499 34.17C26.2299 32.03 24.3399 29.78 24.3399 29.78C24.3399 29.78 23.4199 32.56 23.8299 34.71Z" fill="#C0C1C3"/>
<path d="M37.84 24.46C36.43 24.51 35.75 23.61 35.75 23.61C35.75 23.61 36.36 22.66 37.77 22.61C39.18 22.56 40.87 23.42 40.87 23.42C40.87 23.42 39.25 24.41 37.84 24.46Z" fill="#C0C1C3"/>
<path d="M35.8199 21.35C35.1999 22.62 35.7499 23.6 35.7499 23.6C35.7499 23.6 36.8699 23.43 37.4799 22.16C38.1099 20.9 37.9999 19 37.9999 19C37.9999 19 36.4399 20.08 35.8199 21.35Z" fill="#C0C1C3"/>
<path d="M34.8403 27.5001C33.0503 27.8301 32.0103 26.8001 32.0103 26.8001C32.0103 26.8001 32.6003 25.4701 34.4003 25.1401C36.2003 24.8101 38.5103 25.6101 38.5103 25.6101C38.5103 25.6101 36.6403 27.1701 34.8403 27.5001Z" fill="#C0C1C3"/>
<path d="M31.6701 23.91C31.1201 25.65 32.0101 26.8 32.0101 26.8C32.0101 26.8 33.4101 26.37 33.9601 24.64C34.5101 22.9 34.0201 20.5 34.0201 20.5C34.0201 20.5 32.2301 22.17 31.6701 23.91Z" fill="#C0C1C3"/>
<path d="M31.4397 31.7399C29.6297 32.6699 28.1997 31.8999 28.1997 31.8999C28.1997 31.8999 28.3997 30.2899 30.2097 29.3599C32.0197 28.4299 34.7497 28.5399 34.7497 28.5399C34.7497 28.5399 33.2497 30.8199 31.4397 31.7399Z" fill="#C0C1C3"/>
<path d="M26.8999 28.93C26.8699 30.96 28.1999 31.9 28.1999 31.9C28.1999 31.9 29.5499 31 29.5799 28.97C29.6099 26.93 28.3099 24.53 28.3099 24.53C28.3099 24.53 26.9399 26.89 26.8999 28.93Z" fill="#C0C1C3"/>
<path d="M40.65 20.25C39.31 20.7 39 21.79 39 21.79C39 21.79 39.9 22.47 41.24 22.02C42.58 21.57 43.85 20.16 43.85 20.16C43.85 20.16 41.99 19.8 40.65 20.25Z" fill="#C0C1C3"/>
</g>
<g clip-path="url(#clip1)">
<path d="M293.39 63.72C291.87 66.58 293.07 68.88 293.07 68.88C293.07 68.88 295.64 68.58 297.16 65.72C298.68 62.85 298.57 58.5 298.57 58.5C298.57 58.5 294.91 60.85 293.39 63.72Z" fill="#C0C1C3"/>
<path d="M297.78 71.01C294.54 71.02 293.07 68.89 293.07 68.89C293.07 68.89 294.53 66.75 297.77 66.75C301.01 66.74 304.81 68.87 304.81 68.87C304.81 68.87 301.03 71 297.78 71.01Z" fill="#C0C1C3"/>
<path d="M299.79 60.22C298.99 62.98 300.44 64.76 300.44 64.76C300.44 64.76 302.62 64.04 303.43 61.28C304.23 58.52 303.36 54.75 303.36 54.75C303.36 54.75 300.6 57.46 299.79 60.22Z" fill="#C0C1C3"/>
<path d="M304.92 65.7599C302.11 66.3499 300.44 64.7699 300.44 64.7699C300.44 64.7699 301.33 62.6499 304.14 62.0599C306.96 61.4699 310.64 62.6299 310.64 62.6299C310.64 62.6299 307.74 65.1699 304.92 65.7599Z" fill="#C0C1C3"/>
<path d="M304.28 55.2999C304.19 57.8099 305.8 59.0099 305.8 59.0099C305.8 59.0099 307.5 57.9399 307.59 55.4199C307.68 52.8999 306.14 49.9099 306.14 49.9099C306.14 49.9099 304.38 52.7899 304.28 55.2999Z" fill="#C0C1C3"/>
<path d="M309.81 58.8998C307.55 59.9998 305.8 59.0098 305.8 59.0098C305.8 59.0098 306.1 57.0198 308.36 55.9198C310.62 54.8198 313.99 55.0198 313.99 55.0198C313.99 55.0198 312.07 57.7998 309.81 58.8998Z" fill="#C0C1C3"/>
<path d="M306.52 49.1401C307.32 51.3601 309.14 51.8301 309.14 51.8301C309.14 51.8301 310.23 50.3001 309.43 48.0801C308.63 45.8601 306.23 43.8101 306.23 43.8101C306.23 43.8101 305.71 46.9201 306.52 49.1401Z" fill="#C0C1C3"/>
<path d="M312.59 50.32C311.01 52.07 309.15 51.82 309.15 51.82C309.15 51.82 308.71 49.99 310.29 48.24C311.87 46.49 314.87 45.48 314.87 45.48C314.87 45.48 314.16 48.57 312.59 50.32Z" fill="#C0C1C3"/>
<path d="M306.96 42.6498C308.26 44.6198 310.13 44.6598 310.13 44.6598C310.13 44.6598 310.84 42.9198 309.55 40.9498C308.26 38.9798 305.45 37.5298 305.45 37.5298C305.45 37.5298 305.66 40.6798 306.96 42.6498Z" fill="#C0C1C3"/>
<path d="M313.14 42.3899C312.01 44.4599 310.14 44.6499 310.14 44.6499C310.14 44.6499 309.29 42.9699 310.42 40.8999C311.55 38.8299 314.23 37.1499 314.23 37.1499C314.23 37.1499 314.27 40.3199 313.14 42.3899Z" fill="#C0C1C3"/>
<path d="M305.64 36.6801C307.34 38.0601 309.01 37.5601 309.01 37.5601C309.01 37.5601 309.15 35.8201 307.45 34.4401C305.75 33.0601 302.86 32.5701 302.86 32.5701C302.86 32.5701 303.94 35.3001 305.64 36.6801Z" fill="#C0C1C3"/>
<path d="M311.02 34.71C310.61 36.86 309.01 37.56 309.01 37.56C309.01 37.56 307.79 36.32 308.2 34.17C308.61 32.03 310.51 29.78 310.51 29.78C310.51 29.78 311.44 32.56 311.02 34.71Z" fill="#C0C1C3"/>
<path d="M297.02 24.46C298.43 24.51 299.1 23.61 299.1 23.61C299.1 23.61 298.49 22.66 297.08 22.61C295.67 22.56 293.98 23.42 293.98 23.42C293.98 23.42 295.6 24.41 297.02 24.46Z" fill="#C0C1C3"/>
<path d="M299.04 21.35C299.66 22.62 299.1 23.6 299.1 23.6C299.1 23.6 297.98 23.44 297.37 22.17C296.75 20.9 296.86 19 296.86 19C296.86 19 298.42 20.08 299.04 21.35Z" fill="#C0C1C3"/>
<path d="M300.02 27.5001C301.81 27.8301 302.84 26.8001 302.84 26.8001C302.84 26.8001 302.25 25.4701 300.45 25.1401C298.65 24.8101 296.34 25.6101 296.34 25.6101C296.34 25.6101 298.22 27.1701 300.02 27.5001Z" fill="#C0C1C3"/>
<path d="M303.18 23.91C303.73 25.65 302.84 26.8 302.84 26.8C302.84 26.8 301.44 26.37 300.89 24.64C300.34 22.9 300.84 20.5 300.84 20.5C300.84 20.5 302.63 22.17 303.18 23.91Z" fill="#C0C1C3"/>
<path d="M303.42 31.7401C305.23 32.6701 306.66 31.9001 306.66 31.9001C306.66 31.9001 306.45 30.2901 304.65 29.3601C302.83 28.4401 300.1 28.5401 300.1 28.5401C300.1 28.5401 301.61 30.8201 303.42 31.7401Z" fill="#C0C1C3"/>
<path d="M307.96 28.93C307.99 30.96 306.67 31.9 306.67 31.9C306.67 31.9 305.32 31 305.29 28.97C305.26 26.93 306.56 24.53 306.56 24.53C306.56 24.53 307.92 26.89 307.96 28.93Z" fill="#C0C1C3"/>
<path d="M294.2 20.25C295.54 20.7 295.85 21.79 295.85 21.79C295.85 21.79 294.95 22.47 293.61 22.02C292.27 21.57 291 20.16 291 20.16C291 20.16 292.86 19.8 294.2 20.25Z" fill="#C0C1C3"/>
</g>
<defs>
<clipPath id="clip0">
<rect width="23.86" height="52.01" fill="white" transform="translate(20 19)"/>
</clipPath>
<clipPath id="clip1">
<rect width="23.86" height="52.01" fill="white" transform="translate(291 19)"/>
</clipPath>
</defs>
</svg>
