<svg width="27" height="31" viewBox="0 0 27 31" fill="none" xmlns="http://www.w3.org/2000/svg">
<path d="M19.5706 0.986328C19.8901 1.12779 20.2213 1.24929 20.5259 1.41738C21.1417 1.7569 21.5578 2.28449 21.8507 2.91359C22.0421 3.32468 22.1203 3.76239 22.1203 4.21342C22.1203 6.43027 22.1186 8.64713 22.1253 10.864C22.1253 11.0687 22.067 11.2102 21.9172 11.3483C21.5794 11.6595 21.2582 11.9874 20.9286 12.3069C20.882 12.3519 20.8321 12.3935 20.7439 12.4734C20.7439 12.3136 20.7439 12.2037 20.7439 12.0939C20.7439 9.51756 20.7439 6.94121 20.7439 4.36487C20.7439 3.095 19.96 2.31278 18.6852 2.31278C14.4578 2.31278 10.2305 2.31278 6.00481 2.31278C5.93325 2.31278 5.86168 2.31278 5.74851 2.31278C5.80676 2.37602 5.83505 2.4143 5.87001 2.44592C6.44253 2.94355 7.00673 3.45283 7.59256 3.93381C8.04858 4.30828 8.06356 4.71437 7.67578 5.16706C6.48247 6.56342 5.29416 7.96476 4.10418 9.36444C3.22542 10.398 2.34501 11.4315 1.47125 12.47C1.40135 12.5516 1.35308 12.6797 1.35308 12.7879C1.34642 17.2017 1.35807 21.6154 1.3381 26.0291C1.33311 26.9861 1.99717 27.7833 2.66788 27.9564C2.90921 28.018 3.16717 28.0396 3.41682 28.0413C4.65506 28.0496 5.89331 28.0429 7.13155 28.0429C7.19812 28.0429 7.26303 28.0429 7.35623 28.0429C7.33626 28.1195 7.32627 28.1744 7.30797 28.2277C7.18481 28.5788 7.05666 28.9284 6.93683 29.2812C6.90188 29.381 6.85694 29.4326 6.74044 29.431C5.52217 29.426 4.30389 29.4476 3.08562 29.421C1.70591 29.3894 0.451027 28.3642 0.0782224 27.0177C0.0532578 26.9279 0.0266289 26.8396 0 26.7514C0 22.1313 0 17.5112 0 12.8911C0.0915368 12.6281 0.188067 12.3668 0.272946 12.1022C0.913704 10.1234 1.5528 8.14451 2.19355 6.16731C2.69451 4.61951 3.19713 3.0717 3.6881 1.52057C3.75967 1.29256 3.87783 1.11781 4.07256 0.987992C9.23856 0.986328 14.4046 0.986328 19.5706 0.986328ZM4.17741 2.80874C3.40683 5.17705 2.64791 7.51041 1.88899 9.84543C1.9023 9.85375 1.91562 9.8604 1.92893 9.86873C3.37521 8.13119 4.82316 6.39366 6.2761 4.64614C5.57542 4.03367 4.89472 3.43785 4.17741 2.80874Z" fill="black"/>
<path d="M26.9999 15.5656C26.9033 16.1564 26.5289 16.5675 26.1228 16.9736C22.0502 21.0328 17.9843 25.1004 13.9118 29.1613C13.8186 29.2545 13.6888 29.3327 13.5623 29.3676C11.7032 29.8803 9.84254 30.3862 7.98185 30.8922C7.91361 30.9105 7.84371 30.9221 7.74219 30.9454C7.7838 30.8156 7.81542 30.7157 7.84537 30.6175C8.37795 28.8467 8.90887 27.0759 9.44311 25.3067C9.46974 25.2169 9.52632 25.1237 9.5929 25.0571C13.772 20.878 17.961 16.7073 22.1318 12.5199C22.9972 11.6511 24.1922 11.6794 24.9894 12.5282C25.3489 12.911 25.7217 13.2838 26.1045 13.645C26.5322 14.0494 26.9067 14.4804 26.9999 15.0879C26.9999 15.246 26.9999 15.4058 26.9999 15.5656ZM14.0399 27.0892C17.252 23.8438 20.4475 20.6151 23.6513 17.3797C22.894 16.639 22.1517 15.9151 21.4577 15.2344C18.2623 18.3982 15.0452 21.582 11.8181 24.7758C12.562 25.5531 13.291 26.3103 14.0399 27.0892ZM9.64282 29.2112C9.7277 29.1962 9.76765 29.1912 9.80426 29.1812C10.7263 28.9016 11.6433 28.6071 12.5703 28.3491C12.8982 28.2576 13.1013 28.0479 13.306 27.8198C12.547 27.0709 11.7931 26.327 11.0159 25.5581C10.896 25.7145 10.7063 25.8693 10.6348 26.0673C10.3868 26.768 10.1804 27.4837 9.95738 28.1926C9.85586 28.5189 9.756 28.8484 9.64282 29.2112ZM24.3303 16.5675C24.7497 16.168 25.1791 15.7586 25.6185 15.3409C24.8646 14.6302 24.1123 13.9212 23.4066 13.2555C22.9839 13.6599 22.5795 14.0494 22.1584 14.4521C22.8957 15.1695 23.6346 15.8884 24.3303 16.5675Z" fill="black"/>
<path d="M4.07422 15.0132C4.07422 14.6271 4.07422 14.2709 4.07422 13.9048C8.82914 13.9048 13.5691 13.9048 18.3456 13.9048C18.3456 14.251 18.349 14.5938 18.3373 14.935C18.3357 14.9633 18.2258 15.0082 18.1659 15.0082C17.4403 15.0132 16.7163 15.0132 15.9906 15.0132C12.1444 15.0132 8.29989 15.0132 4.45368 15.0132C4.33551 15.0132 4.21735 15.0132 4.07422 15.0132Z" fill="black"/>
<path d="M15.4883 28.9115C15.7529 28.6119 15.9809 28.3423 16.2222 28.0876C16.2655 28.041 16.3687 28.041 16.4453 28.041C17.2508 28.0377 18.0546 28.046 18.8602 28.0377C19.6857 28.0294 20.2648 27.6133 20.5894 26.876C20.7075 26.6064 20.7358 26.2819 20.7442 25.9806C20.7658 25.2433 20.7458 24.5044 20.7558 23.7654C20.7575 23.6606 20.8107 23.5324 20.884 23.4575C21.2351 23.0947 21.6013 22.7452 21.9641 22.3924C22.0007 22.3558 22.0423 22.3258 22.1006 22.2759C22.1106 22.3408 22.1239 22.3824 22.1239 22.4257C22.1239 23.6955 22.1372 24.9671 22.1172 26.2369C22.0939 27.7664 20.9522 29.1012 19.451 29.3642C19.1331 29.4207 18.8019 29.4191 18.4774 29.4241C17.7251 29.4324 16.9745 29.4241 16.2222 29.4291C16.0841 29.4307 15.9859 29.3908 15.891 29.2909C15.7512 29.1411 15.5931 29.008 15.4883 28.9115Z" fill="black"/>
<path d="M11.1965 17.8276C8.81485 17.8276 6.44987 17.8276 4.07324 17.8276C4.07324 17.4598 4.07324 17.1037 4.07324 16.7358C6.45153 16.7358 8.81485 16.7358 11.1965 16.7358C11.1965 17.0953 11.1965 17.4498 11.1965 17.8276Z" fill="black"/>
<path d="M11.212 19.7266C11.212 20.0677 11.2187 20.3939 11.2037 20.7168C11.202 20.7551 11.0839 20.8183 11.0206 20.8183C10.2018 20.825 9.38295 20.8233 8.56412 20.8233C7.15944 20.8233 5.75477 20.8233 4.35009 20.8233C4.26521 20.8233 4.17867 20.8233 4.07715 20.8233C4.07715 20.4489 4.07715 20.0944 4.07715 19.7266C6.44712 19.7266 8.81376 19.7266 11.212 19.7266Z" fill="black"/>
<path d="M14.8924 5.7963C13.8072 5.7963 12.7221 5.79298 11.6387 5.79963C11.4689 5.8013 11.419 5.74637 11.4289 5.58327C11.4406 5.35027 11.4423 5.11727 11.4289 4.88426C11.419 4.71451 11.4805 4.67123 11.6436 4.6729C12.9085 4.67789 14.1717 4.67623 15.4366 4.67623C16.3353 4.67623 17.234 4.68122 18.1311 4.6729C18.3109 4.67123 18.3624 4.72782 18.3525 4.90091C18.3391 5.13225 18.3408 5.36691 18.3525 5.59992C18.3608 5.76135 18.2992 5.8013 18.1461 5.8013C17.0626 5.79464 15.9775 5.7963 14.8924 5.7963Z" fill="black"/>
<path d="M11.4424 8.54058C11.4424 8.18442 11.4424 7.83991 11.4424 7.47876C11.5023 7.47376 11.5589 7.46378 11.6155 7.46378C13.7974 7.46378 15.9793 7.46544 18.1628 7.46045C18.3143 7.46045 18.3592 7.50705 18.3542 7.65351C18.3443 7.94476 18.3509 8.23602 18.3509 8.54225C16.0359 8.54058 13.7458 8.54058 11.4424 8.54058Z" fill="black"/>
<path d="M11.4308 10.5381C13.7475 10.5381 16.0376 10.5381 18.3493 10.5381C18.3493 10.861 18.3493 11.1722 18.3493 11.4834C18.3493 11.6349 18.2378 11.6032 18.1496 11.6032C17.1527 11.6049 16.1541 11.6049 15.1572 11.6049C13.9872 11.6049 12.8155 11.6016 11.6455 11.6066C11.4857 11.6066 11.4191 11.57 11.4274 11.3969C11.4408 11.1156 11.4308 10.831 11.4308 10.5381Z" fill="black"/>
</svg>
