<svg width="23" height="23" viewBox="0 0 23 23" fill="none" xmlns="http://www.w3.org/2000/svg">
<g clip-path="url(#clip0)">
<path d="M6.12212 21.5704C6.36575 21.5704 6.55524 21.5704 6.74582 21.5704C8.92876 21.5704 11.1128 21.5672 13.2957 21.5737C13.7895 21.5748 14.071 21.8466 14.0754 22.2766C14.0786 22.6839 13.7635 22.9926 13.299 22.9937C9.13017 22.998 4.96242 22.9991 0.7936 22.9937C0.196971 22.9926 -0.11921 22.6037 0.0399634 22.0308C0.532643 20.262 1.04698 18.4998 1.56781 16.7387C1.61545 16.5773 1.74864 16.4289 1.87208 16.3054C7.13779 11.035 12.4057 5.76668 17.6746 0.499477C18.3362 -0.162308 18.5918 -0.165557 19.2458 0.484313C20.3708 1.60426 21.4937 2.72637 22.6133 3.85173C23.1266 4.36729 23.1298 4.70414 22.6036 5.23053C17.3249 10.5161 12.0429 15.7974 6.75664 21.0765C6.58448 21.2488 6.37116 21.3787 6.12212 21.5704ZM3.39993 16.9672C4.29 17.8424 5.19415 18.7316 6.01925 19.5418C10.4209 15.1432 14.829 10.7382 19.1949 6.37539C18.3481 5.52839 17.4581 4.64023 16.594 3.77591C12.2194 8.14954 7.82105 12.5459 3.39993 16.9672ZM17.7114 2.59531C18.6264 3.51704 19.5111 4.40628 20.3643 5.26411C20.6296 5.04315 20.9155 4.80595 21.1299 4.62724C20.1987 3.68926 19.3064 2.78919 18.4153 1.8902C18.1901 2.11657 17.9399 2.36785 17.7114 2.59531ZM4.62242 20.3844C3.90777 19.7291 3.24725 19.1237 2.58565 18.5161C2.35393 19.3165 2.09406 20.2133 1.80711 21.2011C2.78273 20.9184 3.64248 20.6682 4.62242 20.3844Z" fill="black"/>
<path d="M19.1919 22.9958C18.6343 22.9958 18.0755 23.0001 17.5179 22.9947C17.0707 22.9904 16.8065 22.7727 16.7881 22.3102C16.7696 21.8466 17.0198 21.5791 17.5157 21.5736C18.6678 21.5617 19.8199 21.5671 20.972 21.5715C21.4322 21.5736 21.6802 21.8293 21.6802 22.2766C21.6791 22.7217 21.4279 22.9817 20.9753 22.9914C20.3797 23.0055 19.7864 22.9958 19.1919 22.9958Z" fill="black"/>
</g>
<defs>
<clipPath id="clip0">
<rect width="23" height="23" fill="white"/>
</clipPath>
</defs>
</svg>
