<svg width="48" height="38" viewBox="0 0 48 38" fill="none" xmlns="http://www.w3.org/2000/svg">
<path d="M35.0859 37.5469L24.6797 31.9219C28.5234 24.9844 30.5156 18.4922 30.6563 12.4453L30.6563 -1.51214e-06L47.9531 0L47.9531 11.6016C47.9063 15.8672 46.6406 20.4375 44.1563 25.3125C41.6719 30.2344 38.6484 34.3125 35.0859 37.5469ZM10.4062 37.5469L4.91753e-07 31.9219C3.84375 24.9844 5.83594 18.4922 5.97656 12.4453L5.97657 -3.66971e-06L23.2734 -2.15757e-06L23.2734 11.6016C23.2266 15.8672 21.9609 20.4375 19.4766 25.3125C16.9922 30.2344 13.9688 34.3125 10.4062 37.5469Z" fill="#D9D9D9"/>
</svg>
