<svg width="36" height="36" viewBox="0 0 36 36" fill="none" xmlns="http://www.w3.org/2000/svg">
<rect x="36" y="36" width="36" height="36" rx="18" transform="rotate(-180 36 36)" fill="#EEDD2F"/>
<path d="M25.3536 18.3536C25.5488 18.1583 25.5488 17.8417 25.3536 17.6464L22.1716 14.4645C21.9763 14.2692 21.6597 14.2692 21.4645 14.4645C21.2692 14.6597 21.2692 14.9763 21.4645 15.1716L24.2929 18L21.4645 20.8284C21.2692 21.0237 21.2692 21.3403 21.4645 21.5355C21.6597 21.7308 21.9763 21.7308 22.1716 21.5355L25.3536 18.3536ZM12 18.5L25 18.5L25 17.5L12 17.5L12 18.5Z" fill="black"/>
</svg>
