<svg width="151" height="21" viewBox="0 0 151 21" fill="none" xmlns="http://www.w3.org/2000/svg">
<path d="M10.0667 0L12.3268 7.10725L19.6406 7.10725L13.7236 11.4998L15.9837 18.607L10.0667 14.2145L4.14963 18.607L6.40974 11.4998L0.492698 7.10725L7.80656 7.10725L10.0667 0Z" fill="#EEDD2F"/>
<path d="M42.7835 0L45.0436 7.10725L52.3574 7.10725L46.4404 11.4998L48.7005 18.607L42.7835 14.2145L36.8664 18.607L39.1265 11.4998L33.2095 7.10725L40.5234 7.10725L42.7835 0Z" fill="#EEDD2F"/>
<path d="M75.4998 0L77.7599 7.10725L85.0737 7.10725L79.1567 11.4998L81.4168 18.607L75.4998 14.2145L69.5827 18.607L71.8428 11.4998L65.9258 7.10725L73.2397 7.10725L75.4998 0Z" fill="#EEDD2F"/>
<path d="M108.217 0L110.477 7.10725L117.791 7.10725L111.873 11.4998L114.134 18.607L108.217 14.2145L102.3 18.607L104.56 11.4998L98.6426 7.10725L105.956 7.10725L108.217 0Z" fill="#EEDD2F"/>
<path d="M140.933 0L143.193 7.10725L150.507 7.10725L144.59 11.4998L146.85 18.607L140.933 14.2145L135.016 18.607L137.276 11.4998L131.359 7.10725L138.673 7.10725L140.933 0Z" fill="#EEDD2F"/>
</svg>
