<svg width="90" height="90" viewBox="0 0 90 90" fill="none" xmlns="http://www.w3.org/2000/svg">
<g clip-path="url(#clip0)">
<path d="M70.0515 7.68257C70.919 6.42223 71.7629 5.17823 72.6245 3.94762C72.9874 3.4304 73.3105 2.73929 74.0703 2.86117C74.8316 2.98453 74.9201 3.73508 75.0912 4.34891C76.1092 8.01846 77.1213 11.6895 78.1348 15.3591C78.1747 15.5017 78.2057 15.6474 78.2396 15.7916C78.6011 17.3358 77.9017 18.4103 76.3364 18.5619C72.2748 18.9573 68.2103 19.3259 64.1428 19.6514C63.7208 19.6855 63.1012 19.4641 62.8858 19.146C62.7087 18.8859 62.8799 18.2305 63.1012 17.8797C63.9805 16.4812 64.938 15.1317 65.9692 13.6157C64.1383 12.6288 62.393 11.5736 60.5547 10.719C55.5725 8.40489 50.3011 7.30209 44.8217 7.33181C39.3187 7.36302 34.0474 8.5446 29.0533 10.8914C23.5415 13.4819 18.9207 17.202 15.1881 22.0442C10.1041 28.6402 7.27441 36.1369 7.31276 44.4554C7.38506 60.1577 14.3191 71.8976 28.1519 79.3437C31.2944 81.0351 34.6788 82.0591 38.168 82.7502C39.7318 83.0593 40.7926 83.9645 41.1688 85.5503C41.5155 87.0157 41.0434 88.2478 39.903 89.1916C39.0178 89.9243 37.9821 90.1324 36.852 89.9169C29.4177 88.4975 22.7345 85.4373 16.842 80.6442C9.27644 74.4955 4.188 66.7031 1.61649 57.2625C-0.0993313 50.9652 -0.453412 44.5862 0.582275 38.1299C1.72419 31.0108 4.3916 24.5144 8.60663 18.7106C14.0949 11.1559 21.2237 5.71626 30.0182 2.61742C37.0482 0.139839 44.27 -0.616664 51.6673 0.509916C57.9036 1.45963 63.6751 3.6355 69.001 7.02713C69.33 7.23669 69.6635 7.44031 70.0515 7.68257Z" fill="#EEDD2F"/>
<path d="M45.7083 31.4194C45.7083 35.5556 45.7216 39.6918 45.695 43.8281C45.6906 44.4285 45.8735 44.7377 46.4106 45.0156C53.9023 48.8947 61.3808 52.8021 68.8652 56.6946C69.7061 57.1315 70.3937 57.6963 70.6533 58.6505C70.9764 59.8335 70.6872 60.8709 69.774 61.6765C68.7841 62.5504 67.6466 62.6574 66.4796 62.0748C64.808 61.2395 63.1556 60.3641 61.4974 59.5006C54.5382 55.8756 47.5849 52.2388 40.614 48.6376C40.0179 48.3299 39.8306 47.9926 39.832 47.3327C39.8542 37.9708 39.8453 28.6089 39.8497 19.247C39.8497 17.5363 40.6317 16.3755 42.0008 16.0084C43.9069 15.4971 45.6758 16.8734 45.698 18.9393C45.7275 21.6131 45.7054 24.2883 45.7068 26.9636C45.7083 28.4483 45.7083 29.9331 45.7083 31.4194Z" fill="#EEDD2F"/>
<path d="M82.7438 44.9872C82.7438 44.5666 82.7305 44.146 82.7452 43.7254C82.8175 41.6684 84.3194 40.1227 86.2728 40.087C88.2497 40.0514 89.8593 41.5896 89.9626 43.6585C90.0083 44.5711 90.0098 45.4911 89.97 46.4036C89.8844 48.3699 88.2512 49.932 86.3628 49.8993C84.408 49.8636 82.8648 48.367 82.7703 46.3962C82.7482 45.928 82.7674 45.4569 82.7674 44.9857C82.76 44.9872 82.7511 44.9872 82.7438 44.9872Z" fill="#EEDD2F"/>
<path d="M72.9009 72.2867C72.9289 70.4349 75.4753 67.2572 77.2649 66.8396C78.6916 66.5067 80.1669 67.0789 81.0226 68.2976C81.868 69.5 81.9535 71.0398 81.1259 72.2719C80.5077 73.1904 79.8084 74.0628 79.0648 74.8832C78.0365 76.0157 76.4579 76.2966 75.0726 75.6962C73.7138 75.1047 72.8773 73.7938 72.9009 72.2867Z" fill="#EEDD2F"/>
<path d="M54.4727 82.1631C56.7063 82.1705 58.2185 83.4368 58.5136 85.1386C58.8175 86.8909 57.8409 88.6655 56.1545 89.1931C55.0348 89.5438 53.8693 89.798 52.7052 89.9392C50.9894 90.1487 49.3754 88.8676 48.977 87.1212C48.5905 85.4314 49.4727 83.5646 51.0868 83.0028C52.3305 82.5718 53.6509 82.3608 54.4727 82.1631Z" fill="#EEDD2F"/>
<path d="M83.7073 26.2457C84.92 26.311 86.0457 26.9724 86.655 28.3413C87.0844 29.3088 87.4517 30.3135 87.7379 31.3331C88.2558 33.1775 87.2422 35.0502 85.4659 35.6789C83.6955 36.3046 81.7215 35.4664 80.9838 33.717C80.5811 32.7644 80.2211 31.7834 79.9437 30.7876C79.2975 28.4602 81.037 26.2338 83.7073 26.2457Z" fill="#EEDD2F"/>
<path d="M88.0757 58.1197C87.7762 59.4098 87.4177 61.0417 86.4557 62.415C85.4909 63.7928 83.5995 64.1688 82.0873 63.4197C80.5264 62.6469 79.7075 60.96 80.1619 59.2686C80.4378 58.2461 80.7949 57.2369 81.2139 56.2634C81.9117 54.6375 83.6246 53.8364 85.364 54.2391C86.9323 54.6003 88.0801 56.0984 88.0757 58.1197Z" fill="#EEDD2F"/>
<path d="M65.9899 85.0151C64.2166 85.079 62.7663 84.0891 62.2735 82.6163C61.7601 81.078 62.2706 79.4015 63.6028 78.4741C64.429 77.8989 65.2921 77.3683 66.1714 76.8793C67.7087 76.0262 69.6429 76.4885 70.7154 77.9182C71.7703 79.3257 71.7437 81.4629 70.4027 82.5806C69.2681 83.5259 67.8857 84.1724 66.5933 84.9185C66.3779 85.0448 66.0681 85.0047 65.9899 85.0151Z" fill="#EEDD2F"/>
</g>
<defs>
<clipPath id="clip0">
<rect width="90" height="90" fill="white"/>
</clipPath>
</defs>
</svg>
